# xmcd
# 
# Track frame offsets:
#     150
#     24398
#     39652
#     52717
#     64842
#     81117
#     98847
#     109514
#     121404
#     136340
#     155138
#     167767
# 
# Disc length: 2412
# 
# Revision: 1
# Processed by: cddbd v1.5.2PL0 Copyright (c) Steve Scherf et al.
# Submitted via: fre:ac v1.0.17
# 
DISCID=95096a0c
DTITLE=Joey and Rory - His and Hers
DYEAR=2012
DGENRE=Country
TTITLE0=Josephine
TTITLE1=Waiting for Someone
TTITLE2=Someday When I Grow Up
TTITLE3=Let's Pretend We Never Met
TTITLE4=A Bible and a Belt
TTITLE5=When I'm Gone
TTITLE6=Your Man Love You Honey
TTITLE7=Love Your Man
TTITLE8=Cryin' Smile
TTITLE9=He's a Cowboy
TTITLE10=Teaching Me How To Love You
TTITLE11=His and Hers
EXTD=
EXTT0=
EXTT1=
EXTT2=
EXTT3=
EXTT4=
EXTT5=
EXTT6=
EXTT7=
EXTT8=
EXTT9=
EXTT10=
EXTT11=
PLAYORDER=
